# This file uses centimeters as units for non-parametric coordinates.

g default
v -1235.622987 -0.007010 -300.248832
v 1235.730695 -0.007010 -299.805231
v 1235.732454 0.474517 -309.607836
v -1235.621227 0.474517 -310.051437
v 1235.734197 1.914462 -319.316019
v -1235.619485 1.914462 -319.759619
v 1235.735906 4.298956 -328.836310
v -1235.617776 4.298956 -329.279911
v 1235.737565 7.605036 -338.077007
v -1235.616117 7.605036 -338.520608
v 1235.739157 11.800863 -346.949148
v -1235.614525 11.800863 -347.392748
v 1235.740668 16.846029 -355.367226
v -1235.613014 16.846029 -355.810827
v 1235.742083 22.691945 -363.250269
v -1235.611599 22.691945 -363.693870
v 1235.743388 29.282313 -370.522286
v -1235.610293 29.282313 -370.965887
v 1235.744571 36.553662 -377.113246
v -1235.609110 36.553662 -377.556847
v 1235.745621 44.435962 -382.959653
v -1235.608061 44.435962 -383.403254
v 1235.746527 52.853315 -388.005307
v -1235.607155 52.853315 -388.448908
v 1235.747280 61.724644 -392.201519
v -1235.606402 61.724644 -392.645119
v 1235.747873 70.964514 -395.507872
v -1235.605809 70.964514 -395.951472
v 1235.748301 80.483954 -397.892606
v -1235.605381 80.483954 -398.336207
v 1235.748560 90.191274 -399.332665
v -1235.605122 90.191274 -399.776265
v 1235.748646 99.992990 -399.814242
v -1235.605036 99.992990 -400.257843
v 1235.730695 -0.007010 -299.805231
v -1235.622987 -0.007010 -300.248832
v -1235.748646 -0.007010 399.814242
v 1235.605036 -0.007010 400.257843
v 1235.748646 799.992990 -399.814242
v -1235.605036 799.992990 -400.257843
vt -0.125000 1.000000
vt -0.125000 0.000000
vt -0.109375 0.000000
vt -0.109375 1.000000
vt -0.093750 0.000000
vt -0.093750 1.000000
vt -0.078125 0.000000
vt -0.078125 1.000000
vt -0.062500 0.000000
vt -0.062500 1.000000
vt -0.046875 0.000000
vt -0.046875 1.000000
vt -0.031250 0.000000
vt -0.031250 1.000000
vt -0.015625 0.000000
vt -0.015625 1.000000
vt 0.000000 0.000000
vt 0.000000 1.000000
vt 0.015625 0.000000
vt 0.015625 1.000000
vt 0.031250 0.000000
vt 0.031250 1.000000
vt 0.046875 0.000000
vt 0.046875 1.000000
vt 0.062500 0.000000
vt 0.062500 1.000000
vt 0.078125 0.000000
vt 0.078125 1.000000
vt 0.093750 0.000000
vt 0.093750 1.000000
vt 0.109375 0.000000
vt 0.109375 1.000000
vt 0.125000 0.000000
vt 0.125000 1.000000
vt 0.000000 0.125000
vt 1.000000 0.125000
vt 1.000000 1.000000
vt 0.000000 1.000000
vt 1.000000 0.000000
vt 1.000000 1.000000
vn -0.000005 0.999677 0.025430
vn -0.000005 0.999677 0.025430
vn -0.000018 0.995211 0.097753
vn -0.000018 0.995211 0.097753
vn -0.000035 0.980659 0.195723
vn -0.000035 0.980659 0.195723
vn -0.000052 0.957130 0.289658
vn -0.000052 0.957130 0.289658
vn -0.000069 0.923552 0.383474
vn -0.000069 0.923552 0.383474
vn -0.000085 0.881991 0.471266
vn -0.000085 0.881991 0.471266
vn -0.000100 0.831471 0.555568
vn -0.000100 0.831471 0.555568
vn -0.000114 0.773200 0.634162
vn -0.000114 0.773200 0.634162
vn -0.000127 0.707139 0.707075
vn -0.000127 0.707139 0.707075
vn -0.000139 0.634231 0.773144
vn -0.000139 0.634231 0.773144
vn -0.000149 0.555637 0.831425
vn -0.000149 0.555637 0.831425
vn -0.000158 0.471332 0.881956
vn -0.000158 0.471332 0.881956
vn -0.000166 0.383533 0.923527
vn -0.000166 0.383533 0.923527
vn -0.000172 0.289705 0.957116
vn -0.000172 0.289705 0.957116
vn -0.000176 0.195757 0.980653
vn -0.000176 0.195757 0.980653
vn -0.000179 0.097770 0.995209
vn -0.000179 0.097770 0.995209
vn -0.000179 0.025434 0.999676
vn -0.000179 0.025434 0.999676
vn -0.000005 0.999677 0.025430
vn -0.000005 0.999677 0.025430
vn 0.000000 1.000000 0.000000
vn 0.000000 1.000000 0.000000
vn -0.000179 0.000000 1.000000
vn -0.000179 0.000000 1.000000
s 1
g Backdrop
f 1/1/1 2/2/2 4/4/3
f 2/2/2 3/3/4 4/4/3
f 4/4/3 3/3/4 6/6/5
f 3/3/4 5/5/6 6/6/5
f 6/6/5 5/5/6 8/8/7
f 5/5/6 7/7/8 8/8/7
f 8/8/7 7/7/8 10/10/9
f 7/7/8 9/9/10 10/10/9
f 10/10/9 9/9/10 12/12/11
f 9/9/10 11/11/12 12/12/11
f 12/12/11 11/11/12 14/14/13
f 11/11/12 13/13/14 14/14/13
f 14/14/13 13/13/14 16/16/15
f 13/13/14 15/15/16 16/16/15
f 16/16/15 15/15/16 18/18/17
f 15/15/16 17/17/18 18/18/17
f 18/18/17 17/17/18 20/20/19
f 17/17/18 19/19/20 20/20/19
f 20/20/19 19/19/20 22/22/21
f 19/19/20 21/21/22 22/22/21
f 22/22/21 21/21/22 24/24/23
f 21/21/22 23/23/24 24/24/23
f 24/24/23 23/23/24 26/26/25
f 23/23/24 25/25/26 26/26/25
f 26/26/25 25/25/26 28/28/27
f 25/25/26 27/27/28 28/28/27
f 28/28/27 27/27/28 30/30/29
f 27/27/28 29/29/30 30/30/29
f 30/30/29 29/29/30 32/32/31
f 29/29/30 31/31/32 32/32/31
f 32/32/31 31/31/32 34/34/33
f 31/31/32 33/33/34 34/34/33
s 2
f 35/35/35 36/36/36 38/38/37
f 36/36/36 37/37/38 38/38/37
s 1
f 39/39/39 40/40/40 33/33/34
f 40/40/40 34/34/33 33/33/34
